<?xml version="1.0" ?><svg viewBox="0 0 64 64" xmlns="http://www.w3.org/2000/svg"><defs><style>.cls-1{fill:none;stroke:#000;stroke-linejoin:round;stroke-width:2px;}</style></defs><title/><g data-name="Layer 24" id="Layer_24"><polyline class="cls-1" points="49 10 62 10 62 24 2 24 2 10 15 10"/><rect class="cls-1" height="38" width="56" x="4" y="24"/><rect class="cls-1" height="16" width="34" x="15" y="2"/><polyline class="cls-1" points="26 6 19 6 19 14 25 14 25 10 22 10"/><path class="cls-1" d="M29,5V7a3,3,0,0,0,3,3h0a3,3,0,0,0,3-3V5"/><line class="cls-1" x1="32" x2="32" y1="10" y2="15"/><polyline class="cls-1" points="39 15 39 6 42 12 45 6 45 15"/><polyline class="cls-1" points="20 62 20 42 44 42 44 62"/><line class="cls-1" x1="32" x2="32" y1="42" y2="62"/><rect class="cls-1" height="10" width="48" x="8" y="28"/><line class="cls-1" x1="24" x2="24" y1="28" y2="38"/><line class="cls-1" x1="40" x2="40" y1="28" y2="38"/><line class="cls-1" x1="11" x2="15" y1="35" y2="31"/><line class="cls-1" x1="17" x2="21" y1="35" y2="31"/><line class="cls-1" x1="27" x2="31" y1="35" y2="31"/><line class="cls-1" x1="33" x2="37" y1="35" y2="31"/><line class="cls-1" x1="43" x2="47" y1="35" y2="31"/><line class="cls-1" x1="49" x2="53" y1="35" y2="31"/><line class="cls-1" x1="28" x2="28" y1="49" y2="53"/><line class="cls-1" x1="36" x2="36" y1="49" y2="53"/></g></svg>