<?xml version="1.0" standalone="no"?>
<!DOCTYPE svg PUBLIC "-//W3C//DTD SVG 20010904//EN"
 "http://www.w3.org/TR/2001/REC-SVG-20010904/DTD/svg10.dtd">
<svg version="1.0" xmlns="http://www.w3.org/2000/svg"
 width="256.000000pt" height="256.000000pt" viewBox="0 0 256.000000 256.000000"
 preserveAspectRatio="xMidYMid meet">

<g transform="translate(0.000000,256.000000) scale(0.100000,-0.100000)"
fill="#000000" stroke="none">
<path d="M1090 2505 c-102 -16 -229 -55 -327 -100 -250 -115 -493 -358 -608
-608 -152 -332 -152 -709 0 -1044 113 -248 358 -494 602 -605 187 -85 317
-113 528 -113 211 0 341 28 528 113 241 110 489 358 599 599 85 187 113 317
113 528 0 211 -28 341 -113 528 -111 244 -357 489 -605 602 -224 102 -478 137
-717 100z m320 -855 l0 -250 250 0 250 0 0 -125 0 -125 -250 0 -250 0 0 -250
0 -250 -125 0 -125 0 0 250 0 250 -250 0 -250 0 0 125 0 125 250 0 250 0 0
250 0 250 125 0 125 0 0 -250z"/>
</g>
</svg>
